<svg id="eUgFZVAhvP01" xmlns="http://www.w3.org/2000/svg" xmlns:xlink="http://www.w3.org/1999/xlink" viewBox="0 0 2782 927" shape-rendering="geometricPrecision" text-rendering="geometricPrecision"><defs><filter id="eUgFZVAhvP03-filter" x="-150%" width="400%" y="-150%" height="400%"><feGaussianBlur id="eUgFZVAhvP03-filter-inner-shadow-0-blur" in="SourceAlpha" stdDeviation="0,0"/><feOffset id="eUgFZVAhvP03-filter-inner-shadow-0-offset" dx="0" dy="0" result="tmp"/><feComposite id="eUgFZVAhvP03-filter-inner-shadow-0-composite" operator="arithmetic" k2="-1" k3="1" in2="SourceGraphic"/><feColorMatrix id="eUgFZVAhvP03-filter-inner-shadow-0-color-matrix" type="matrix" values="0 0 0 0 0 0 0 0 0 0 0 0 0 0 0 0 0 0 0.5 0"/><feMerge id="eUgFZVAhvP03-filter-inner-shadow-0-merge" result="result"><feMergeNode id="eUgFZVAhvP03-filter-inner-shadow-0-merge-node-1" in="SourceGraphic"/><feMergeNode id="eUgFZVAhvP03-filter-inner-shadow-0-merge-node-2"/></feMerge><feComponentTransfer id="eUgFZVAhvP03-filter-brightness-0" result="result"><feFuncR id="eUgFZVAhvP03-filter-brightness-0-R" type="linear" slope="10"/><feFuncG id="eUgFZVAhvP03-filter-brightness-0-G" type="linear" slope="10"/><feFuncB id="eUgFZVAhvP03-filter-brightness-0-B" type="linear" slope="10"/></feComponentTransfer><feColorMatrix id="eUgFZVAhvP03-filter-grayscale-0" type="matrix" values="1 0 0 0 0 0 1 0 0 0 0 0 1 0 0 0 0 0 1 0" result="result"/><feColorMatrix id="eUgFZVAhvP03-filter-saturate-0" type="saturate" values="1" result="result"/><feColorMatrix id="eUgFZVAhvP03-filter-sepia-0" type="matrix" values="1 0 0 0 0 0 1 0 0 0 0 0 1 0 0 0 0 0 1 0" result="result"/><feGaussianBlur id="eUgFZVAhvP03-filter-blur-0" stdDeviation="0,0" result="result"/><feGaussianBlur id="eUgFZVAhvP03-filter-drop-shadow-0-blur" in="result" stdDeviation="0,0"/><feOffset id="eUgFZVAhvP03-filter-drop-shadow-0-offset" dx="0" dy="0" result="tmp"/><feFlood id="eUgFZVAhvP03-filter-drop-shadow-0-flood" flood-color="#000"/><feComposite id="eUgFZVAhvP03-filter-drop-shadow-0-composite" operator="in" in2="tmp"/><feMerge id="eUgFZVAhvP03-filter-drop-shadow-0-merge" result="result"><feMergeNode id="eUgFZVAhvP03-filter-drop-shadow-0-merge-node-1"/><feMergeNode id="eUgFZVAhvP03-filter-drop-shadow-0-merge-node-2" in="result"/></feMerge></filter></defs><g transform="matrix(.1 0 0-.1 0 927)"><path d="M5028,9110c-1295-74-2382-506-3170-1259-163-156-365-390-478-556-31-45-25-41,81,54c801,724,1701,1143,2676,1246c197,21,589,21,788,0c317-34,573-87,841-174c1165-379,2100-1259,2613-2458c142-333,263-739,327-1093c9-52,18-97,20-99s43,30,91,70c528,444,838,894,945,1371c20,89,23,130,23,308c0,162-4,223-19,290-152,695-776,1321-1756,1762-620,279-1334,458-2095,523-209,18-689,26-887,15Z" transform="translate(-39.5538 34.14673)" filter="url(#eUgFZVAhvP03-filter)" fill="#fb0000"/><path d="M14600,7940c-124-4-567-8-985-9l-761-1-38-77c-47-97-295-575-519-1003-205-391-545-1013-827-1510-187-329-326-563-568-957l-82-133h1239c1728,0,1962,11,2368,115c512,132,951,448,1181,852c98,173,132,280,133,422c0,91-1,97-44,185-71,147-146,206-342,269-44,14-109,32-145,38l-65,13l40,9c142,31,261,63,330,89c114,44,297,132,390,188c346,210,637,603,685,926c11,71,10,88-9,166-29,124-58,176-126,227-69,52-194,111-295,140-175,48-242,53-805,56-291,1-631-1-755-5Zm95-723c181-10,302-70,319-160c15-80-43-213-137-312-64-67-209-159-292-184-34-11-118-29-186-40-114-20-157-21-521-19l-397,3l196,357c151,274,202,358,217,360c33,5,691,0,801-5Zm-705-1458c201-16,289-57,326-155c16-42,16-48,0-107-27-99-81-184-170-272-216-212-411-254-1188-255-218,0-318,3-318,11c0,10,413,753,432,777c13,16,721,17,918,1Z"/><path d="M5210,7720c-263-37-482-118-688-253-304-200-527-490-641-834-60-183-76-287-76-503c1-216,16-314,76-495c83-248,198-434,389-626c229-230,488-372,805-441c134-29,416-36,560-13c348,54,657,214,901,466c155,161,249,301,330,493c93,220,130,424,121,676-8,245-55,437-157,640-228,457-627,765-1125,870-114,24-388,35-495,20Z"/><path d="M23405,7710c-282-52-614-106-914-151-184-27-335-50-336-51-1-2-21-37-45-78s-94-162-157-267l-113-193-281-2-281-3-42-75c-23-41-91-163-151-270s-135-239-167-293-58-100-58-103c0-2,119-5,265-6l265-3-251-425c-576-976-590-1004-606-1206-5-74-3-86,22-143c33-72,98-136,178-175c230-113,784-124,1485-30l124,17l117,156c65,86,150,203,191,261c40,58,115,161,167,228c52,68,93,125,91,127-2,1-82-10-178-26-188-31-376-39-449-19-54,14-98,53-110,97-27,97,38,243,357,801l196,342h391h390l103,199c57,110,144,273,194,363c50,89,93,169,95,176c4,9-76,12-381,12-212,0-386,3-386,6c0,6,337,625,387,712c30,50,35,49-112,22Z"/><path d="M26150,7669c-184-32-486-81-670-109-254-37-337-53-346-65-7-9-79-131-161-270l-148-255h-281-281l-143-256c-78-140-173-308-211-372l-68-117l264-3c146-1,265-6,265-10s-6-16-14-27c-17-25-442-745-584-990-204-353-254-476-256-630-1-97,21-152,87-219c111-111,288-158,648-172c228-9,662,20,964,65l110,16l87,115c49,63,136,183,195,265c58,83,149,206,201,274c88,114,92,123,66,117-243-50-527-71-617-44-22,7-55,26-73,44-30,27-34,38-34,81c0,111,66,251,358,765l197,348h392h391l105,203c57,111,143,272,190,357c47,86,89,163,93,173c6,16-18,17-380,17-212,0-386,2-386,3c0,2,71,134,158,293c273,499,256,464,235,463-10-1-169-28-353-60Z"/><path d="M1830,7417c-134-112-409-392-501-507-226-286-372-578-435-870-27-121-27-458-1-580c140-655,699-1248,1593-1687c666-328,1437-533,2279-605c202-17,866-17,1050,0c509,48,925,132,1345,273c845,282,1556,780,2048,1434c50,66,88,122,86,124-3,3-28-18-57-46-89-86-286-251-428-358-703-529-1476-841-2299-926-161-17-599-18-760-1-904,94-1710,456-2376,1070-558,514-979,1176-1234,1940-67,201-147,505-180,690-13,70-27,122-34,121-6,0-49-32-96-72Z" transform="translate(-5.40707 34.14673)" fill="#fb0000"/><path d="M19085,7074c-162-7-435-25-590-40-245-23-815-96-937-120-21-4-56-49-178-226-84-122-191-273-237-335-47-63-83-116-81-118s64,12,138,31c720,182,1439,265,1680,193c24-7,59-28,78-46c32-31,34-36,30-82-10-97-111-193-255-240-111-36-440-102-683-136-449-63-751-125-1030-211-425-132-751-329-961-582-196-236-247-483-142-690c35-69,125-153,209-192c75-36,217-73,354-92c217-29,900-5,935,34c6,7,81,94,166,192c85,99,196,224,247,279c52,54,92,101,89,104-3,2-41-2-84-11-191-38-378-44-487-15-52,14-101,64-110,111-21,112,127,257,344,335c47,17,249,67,450,112c201,44,408,94,460,111c52,16,96,28,98,26c8-8-455-786-634-1066l-93-145l671-3c370-1,675,1,679,5c4,5,71,125,149,268c240,438,364,655,595,1040c382,636,479,822,510,971c50,245-123,405-525,483-221,44-583,67-855,55Z"/><path d="M2902,2237c-30-78-56-149-58-157-4-13,28-15,249-15h255l57,140c31,77,59,148,62,157c5,16-15,17-253,17h-259l-53-142Z" transform="translate(28.73967 34.14674)" fill="#fb0000"/><path style="mix-blend-mode:multiply" d="M10260,2242c-29-75-54-146-57-157-4-20,1-20,248-19l253,1l63,154c34,85,63,155,63,156s-116,2-259,2h-258l-53-137Z" transform="translate(28.73967 34.14674)" fill="#fb0000"/><path style="mix-blend-mode:multiply" d="M13580,2370c0-6-22-69-49-142s-51-139-53-147c-2-12,39-14,248-15l252-1l61,151c34,84,61,154,61,157c0,4-117,6-260,6-156,0-260-4-260-9Z" transform="translate(28.73967 0)" fill="#fb0000"/><path style="mix-blend-mode:multiply" d="M16380,2369c0-8-54-158-105-289-4-13,31-15,250-15h255l60,151c33,82,60,153,60,156c0,4-117,7-260,7-169,0-260-4-260-10Z" transform="translate(28.73967 0)" fill="#fb0000"/><path style="mix-blend-mode:multiply" d="M12755,2323c-36-95-158-409-160-411-1-1-59,3-128,9-230,22-432-13-622-106-136-66-250-156-347-273-165-200-253-381-278-576-31-226,73-382,282-427c75-16,237-6,323,21s194,80,258,127c26,20,50,34,52,32s-7-30-20-62c-45-110-71-98,205-95l242,3l68,180c133,353,436,1096,584,1430c36,82,66,153,66,157c0,5-117,8-259,8-237,0-259-1-266-17Zm-311-753c10-10-63-197-129-330-104-207-250-330-393-330-169,0-209,156-93,365c119,213,309,324,531,309c41-3,79-9,84-14Z" transform="translate(28.73967 0)" fill="#fb0000"/><path style="mix-blend-mode:multiply" d="M5369,2187l-245-50-50-120c-27-66-55-126-62-134-9-9-44-13-116-13h-102l-67-168c-37-92-67-171-67-175s43-7,95-7s95-4,95-9-58-148-130-320c-71-171-136-334-145-363-47-160,14-258,180-289c132-25,493,10,516,50c27,44,187,346,185,348-1,2-36-4-77-13-97-21-166-14-192,17-31,38-17,98,83,350l92,229h151h152l54,143c29,78,60,157,67,175l14,32h-140c-108,0-142,3-146,13-3,8,25,89,61,181s65,170,65,172c0,7-13,4-271-49Z" transform="translate(28.73967 34.14674)" fill="#fb0000"/><path d="M1885,1924c-250-26-439-143-529-326-50-100-58-178-26-260c17-46,44-81,140-183c66-69,122-136,126-149c8-35-20-81-63-102-27-13-66-20-136-22-103-4-167,10-301,64-33,13-61,22-63,20-10-9-100-377-93-381c4-2,60-14,126-27c97-18,153-22,304-22c167,0,194,3,281,26c232,63,392,193,449,364c28,82,24,168-10,234-13,25-75,97-141,164-135,134-144,155-89,206c62,58,255,66,402,16c40-13,76-21,80-18c3,4,29,83,57,177c33,113,47,171,40,176-38,23-443,54-554,43Z" transform="translate(-5.40707 68.29347)" fill="#fb0000"/><path style="mix-blend-mode:multiply" d="M4010,1924c-254-31-435-144-526-329-35-71-39-87-39-154c0-106,22-146,166-297c134-141,142-160,90-211-38-38-91-53-188-53-87,0-156,15-270,60-43,16-79,28-81,26-9-9-98-377-92-381c24-15,258-47,376-52c275-11,495,52,646,187c98,87,158,209,158,319c0,92-33,146-170,285-123,122-134,142-110,187c6,10,30,29,53,41c37,20,57,23,167,22c110,0,134-3,204-27c43-15,79-26,80-25c1,2,25,82,54,178c34,115,48,177,40,181-37,23-457,55-558,43Z" transform="translate(28.73967 34.14674)" fill="#fb0000"/><path style="mix-blend-mode:multiply" d="M6534,1916c-221-36-402-126-552-274-179-177-305-409-337-623-39-253,66-412,308-467c106-24,482-23,637,1c63,10,122,20,130,23c8,2,58,88,111,190c92,175,96,185,70,179-224-58-364-78-493-73-115,5-165,23-211,78-37,43-43,89-22,166l17,64h463h463l41,95c118,267,87,481-84,580-103,61-363,90-541,61Zm163-311c14-9,31-32,39-51c12-30,12-43-2-104l-16-70h-219-219l21,42c45,89,151,175,243,199c44,11,124,3,153-16Z" transform="translate(28.73967 34.14674)" fill="#fb0000"/><path style="mix-blend-mode:multiply" d="M8528,1800c-120-20-250-75-335-142-25-20-51-40-58-45-8-7-5,10,9,44c33,85,39,100,39,105c0,2-110,4-244,4h-243l-33-87c-66-176-246-625-367-918-69-165-127-306-130-313-4-10,48-12,257-10l262,3l13,35c85,224,219,549,265,646c91,188,181,274,288,274c92,0,110-57,64-196-30-88-165-424-260-644l-49-115l255-3c141-1,259,1,263,5c4,5,39,93,79,198c166,436,227,567,308,655c66,74,114,100,182,100c94,0,113-56,64-198-30-86-117-303-228-569-42-100-76-184-76-187c0-4,115-5,256-4l256,3l148,365c81,201,175,433,208,515c69,169,86,237,73,295-22,98-87,150-216,176-193,38-415-19-572-146l-61-49-12,45c-17,61-72,115-140,137-55,18-207,30-265,21Z" transform="translate(28.73967 34.14674)" fill="#fb0000"/><path style="mix-blend-mode:multiply" d="M15315,1924c-206-31-319-79-423-182-98-96-146-196-147-302c0-103,22-143,167-296c133-141,142-163,89-213-39-37-92-51-188-51-88,0-160,16-271,61-41,16-76,28-77,27-5-5-95-357-95-371s105-38,250-57c172-22,393-5,523,39c171,59,309,171,370,298c28,60,32,78,32,153c0,64-5,95-20,125-10,22-75,97-142,166-68,70-123,134-123,143c0,32,23,64,64,87c37,22,52,24,166,23c107,0,136-4,205-27c43-14,80-25,81-24s25,80,53,176c36,122,48,177,40,182-37,23-465,56-554,43Z" transform="translate(28.73967 0)" fill="#fb0000"/><path style="mix-blend-mode:multiply" d="M17500,1915c-282-39-507-186-677-444-170-257-237-565-159-725c33-67,99-133,161-162c96-45,182-57,359-51c166,6,342,30,362,50c19,19,206,387,197,387-4,0-30-7-58-15-165-50-340-56-415-14-65,36-83,67-83,138c2,165,117,345,266,417c128,61,262,65,442,13c41-12,77-20,78-18c2,2,29,90,59,194l56,190-69,17c-156,37-351,46-519,23Z" transform="translate(28.73967 0)" fill="#fb0000"/><path style="mix-blend-mode:multiply" d="M20885,1917c-72-19-158-61-231-112-34-25-65-45-68-45-5,0,3,23,41,118c4,9-49,12-244,12h-249l-63-182c-81-235-199-533-345-873l-115-270l256-3c141-1,260,1,264,5c3,5,28,71,54,148c113,331,208,535,294,628c108,117,214,163,355,155c45-3,87-7,95-9c9-3,20,14,32,51c81,248,119,373,116,377-12,11-148,11-192,0Z" transform="translate(62.88641 34.14674)" fill="#fb0000"/><path style="mix-blend-mode:multiply" d="M21825,1920c-249-35-439-131-604-306-105-111-166-200-231-336-68-144-84-209-84-348-1-111,0-118,32-183c53-106,136-162,297-198c93-21,479-19,625,4c63,10,120,22,128,26c14,8,207,371,197,371-4,0-50-11-103-25-151-38-266-55-371-55-119,0-189,19-239,65-37,33-37,34-37,112c1,43,6,90,13,106l12,27h458h459l31,63c166,340,90,592-200,662-75,19-299,27-383,15Zm133-314c52-27,64-83,37-174l-16-52h-214c-118,0-215,2-215,5c0,14,35,73,65,110c90,112,245,162,343,111Z" transform="translate(62.88641 34.14674)" fill="#fb0000"/><path style="mix-blend-mode:multiply" d="M26275,1920c-107-10-332-43-428-63l-58-12-84-163c-59-115-79-162-67-158c300,93,385,110,543,111c113,0,129-2,149-20c18-16,21-27,17-60-11-80-86-118-332-165-369-72-521-136-665-280-99-99-142-183-148-290-6-103,10-155,62-206c67-64,128-79,321-79c88,0,171,3,185,8c18,5,52,49,117,148c85,131,90,141,65,135-15-3-58-9-97-12-80-6-113,6-133,49-12,24-11,33,7,70c33,67,83,94,290,158c102,32,188,56,190,54c4-5-88-233-175-433-31-70-58-133-61-140-4-10,47-12,252-10l258,3l67,176c38,96,129,321,203,500c147,354,157,382,157,451c0,112-67,176-222,213-80,19-283,26-413,15Z" transform="translate(0 34.14674)" fill="#fb0000"/><path d="M2755,1873c-4-10-40-106-80-213-131-349-292-744-380-935-21-44-46-99-56-122l-18-43h277h277l27,73c15,39,68,185,119,322c118,323,203,539,295,748c41,93,74,173,74,178s-107,9-264,9c-242,0-264-1-271-17Z" transform="translate(28.73967 34.14674)" fill="#fb0000"/><path style="mix-blend-mode:multiply" d="M10116,1882c-3-4-38-98-79-208-145-385-306-780-416-1017-23-49-41-91-41-93s125-3,277-2l278,3l77,215c123,338,243,647,340,875c50,116,92,216,95,223c4,9-52,12-260,12-146,0-268-4-271-8Z" transform="translate(28.73967 34.14674)" fill="#fb0000"/><path style="mix-blend-mode:multiply" d="M13330,1723c-117-313-288-737-383-950l-95-213h277h278l118,323c127,347,247,651,343,870l60,137h-267-268l-63-167Z" transform="translate(28.73967 0)" fill="#fb0000"/><path style="mix-blend-mode:multiply" d="M16115,1683c-149-396-314-801-419-1026l-45-97h279c154,0,280,2,280,3c0,7,209,577,265,722c49,126,132,324,234,558l20,47h-268-268l-78-207Z" transform="translate(28.73967 0)" fill="#fb0000"/><path style="mix-blend-mode:multiply" d="M18355,1813c-42-115-202-513-288-714-116-273-129-366-63-452c67-89,183-124,375-114c181,10,299,50,424,146c38,29,67,46,67,38c0-12-26-92-45-140-7-16,7-17,241-15l248,3l96,250c119,307,256,641,361,878c43,99,79,183,79,188s-110,8-256,7l-257-3-116-290c-158-392-205-479-302-564-125-108-306-103-333,10-13,57,52,232,264,709c23,52,46,105,51,118l9,22h-264-263l-28-77Z" transform="translate(97.03315 0)" fill="#fb0000"/><path style="mix-blend-mode:multiply" d="M22798,1713c-38-97-66-178-65-180c2-2,96,1,208,7c247,12,329,12,329,3c0-5-42-38-93-74-393-280-704-504-715-514-12-11-152-368-152-387c0-5,258-8,573-8h573l72,169c40,93,72,171,72,175c0,3-124,6-276,6-215,0-275,3-272,12c3,7,180,136,394,286l388,273l82,205l82,204h-567-566l-67-177Z" transform="translate(34.14674 34.14674)" fill="#fb0000"/><path style="mix-blend-mode:multiply" d="M24260,1868c-22-51-128-333-126-335s110,2,242,8c353,16,341,28,129-125-99-71-259-186-355-256-96-69-202-145-235-168l-61-42-68-182c-38-101-71-189-74-196-3-10,112-12,572-10l577,3l73,170l72,170-285,5-286,5l35,26c50,37,633,447,706,496l60,41l80,199c43,109,81,201,82,205c2,5-251,8-562,8h-566l-10-22Z" transform="translate(0 34.14674)" fill="#fb0000"/></g></svg>
